# xmcd
#
# Track frame offsets:
#	150
#	18150
#	48375
#	78692
#
# Disc length: 1450 seconds
#
# Revision: 2
# Processed by: cddbd v1.4PL0 Copyright (c) Steve Scherf et al.
# Submitted via: EasyCDDAExtractor 5.0.6
#
DISCID=2705a804
DTITLE=The Outhere Brothers - Ole Ole
DYEAR=1997
DGENRE=Dance
TTITLE0=Ole Ole(Tribal Instrumental)
TTITLE1=Ole Ole(Tribal Vocal Mix)
TTITLE2=Ole Ole(Radio Mix)
TTITLE3=Ole Ole(Extended Club Mix)
EXTD=
EXTT0=
EXTT1=
EXTT2=
EXTT3=
PLAYORDER=
